<svg width="28" height="28" viewBox="0 0 28 28" fill="none" xmlns="http://www.w3.org/2000/svg">
<path d="M10.5 19.25C9.68333 19.25 8.99306 18.9681 8.42917 18.4042C7.86528 17.8403 7.58333 17.15 7.58333 16.3333C7.58333 15.5167 7.86528 14.8264 8.42917 14.2625C8.99306 13.6986 9.68333 13.4167 10.5 13.4167C11.3167 13.4167 12.0069 13.6986 12.5708 14.2625C13.1347 14.8264 13.4167 15.5167 13.4167 16.3333C13.4167 17.15 13.1347 17.8403 12.5708 18.4042C12.0069 18.9681 11.3167 19.25 10.5 19.25ZM5.83333 25.6667C5.19167 25.6667 4.64236 25.4382 4.18542 24.9812C3.72847 24.5243 3.5 23.975 3.5 23.3333V6.99999C3.5 6.35833 3.72847 5.80902 4.18542 5.35208C4.64236 4.89513 5.19167 4.66666 5.83333 4.66666H7V2.33333H9.33333V4.66666H18.6667V2.33333H21V4.66666H22.1667C22.8083 4.66666 23.3576 4.89513 23.8146 5.35208C24.2715 5.80902 24.5 6.35833 24.5 6.99999V23.3333C24.5 23.975 24.2715 24.5243 23.8146 24.9812C23.3576 25.4382 22.8083 25.6667 22.1667 25.6667H5.83333ZM5.83333 23.3333H22.1667V11.6667H5.83333V23.3333Z" fill="#848484"/>
</svg>
