<svg width="28" height="28" viewBox="0 0 28 28" fill="none" xmlns="http://www.w3.org/2000/svg">
<path d="M14.0002 23.3333C16.4755 23.3333 18.8495 22.35 20.5998 20.5997C22.3502 18.8493 23.3335 16.4753 23.3335 14C23.3335 11.5246 22.3502 9.15067 20.5998 7.40033C18.8495 5.64999 16.4755 4.66666 14.0002 4.66666C11.5248 4.66666 9.15084 5.64999 7.4005 7.40033C5.65016 9.15067 4.66683 11.5246 4.66683 14C4.66683 16.4753 5.65016 18.8493 7.4005 20.5997C9.15084 22.35 11.5248 23.3333 14.0002 23.3333ZM14.0002 2.33333C15.5323 2.33333 17.0493 2.6351 18.4648 3.2214C19.8803 3.80771 21.1664 4.66707 22.2497 5.75042C23.3331 6.83377 24.1925 8.11989 24.7788 9.53535C25.3651 10.9508 25.6668 12.4679 25.6668 14C25.6668 17.0942 24.4377 20.0616 22.2497 22.2496C20.0618 24.4375 17.0944 25.6667 14.0002 25.6667C7.5485 25.6667 2.3335 20.4167 2.3335 14C2.3335 10.9058 3.56266 7.93834 5.75058 5.75042C7.93851 3.56249 10.906 2.33333 14.0002 2.33333ZM14.5835 8.16666V14.2917L19.8335 17.4067L18.9585 18.8417L12.8335 15.1667V8.16666H14.5835Z" fill="#848484"/>
</svg>
