<svg width="28" height="29" viewBox="0 0 28 29" fill="none" xmlns="http://www.w3.org/2000/svg">
                  <path d="M2 22.5V19.725C2 19.1583 2.14167 18.6333 2.425 18.15C2.70833 17.6667 3.1 17.3 3.6 17.05C3.83333 16.9333 4.05833 16.825 4.275 16.725C4.50833 16.625 4.75 16.5333 5 16.45V22.5H2ZM6 15.5C5.16667 15.5 4.45833 15.2083 3.875 14.625C3.29167 14.0417 3 13.3333 3 12.5C3 11.6667 3.29167 10.9583 3.875 10.375C4.45833 9.79167 5.16667 9.5 6 9.5C6.83333 9.5 7.54167 9.79167 8.125 10.375C8.70833 10.9583 9 11.6667 9 12.5C9 13.3333 8.70833 14.0417 8.125 14.625C7.54167 15.2083 6.83333 15.5 6 15.5ZM6 13.5C6.28333 13.5 6.51667 13.4083 6.7 13.225C6.9 13.025 7 12.7833 7 12.5C7 12.2167 6.9 11.9833 6.7 11.8C6.51667 11.6 6.28333 11.5 6 11.5C5.71667 11.5 5.475 11.6 5.275 11.8C5.09167 11.9833 5 12.2167 5 12.5C5 12.7833 5.09167 13.025 5.275 13.225C5.475 13.4083 5.71667 13.5 6 13.5ZM6 22.5V19.7C6 19.1333 6.14167 18.6167 6.425 18.15C6.725 17.6667 7.11667 17.3 7.6 17.05C8.63333 16.5333 9.68333 16.15 10.75 15.9C11.8167 15.6333 12.9 15.5 14 15.5C15.1 15.5 16.1833 15.6333 17.25 15.9C18.3167 16.15 19.3667 16.5333 20.4 17.05C20.8833 17.3 21.2667 17.6667 21.55 18.15C21.85 18.6167 22 19.1333 22 19.7V22.5H6ZM8 20.5H20V19.7C20 19.5167 19.95 19.35 19.85 19.2C19.7667 19.05 19.65 18.9333 19.5 18.85C18.6 18.4 17.6917 18.0667 16.775 17.85C15.8583 17.6167 14.9333 17.5 14 17.5C13.0667 17.5 12.1417 17.6167 11.225 17.85C10.3083 18.0667 9.4 18.4 8.5 18.85C8.35 18.9333 8.225 19.05 8.125 19.2C8.04167 19.35 8 19.5167 8 19.7V20.5ZM14 14.5C12.9 14.5 11.9583 14.1083 11.175 13.325C10.3917 12.5417 10 11.6 10 10.5C10 9.4 10.3917 8.45833 11.175 7.675C11.9583 6.89167 12.9 6.5 14 6.5C15.1 6.5 16.0417 6.89167 16.825 7.675C17.6083 8.45833 18 9.4 18 10.5C18 11.6 17.6083 12.5417 16.825 13.325C16.0417 14.1083 15.1 14.5 14 14.5ZM14 12.5C14.55 12.5 15.0167 12.3083 15.4 11.925C15.8 11.525 16 11.05 16 10.5C16 9.95 15.8 9.48333 15.4 9.1C15.0167 8.7 14.55 8.5 14 8.5C13.45 8.5 12.975 8.7 12.575 9.1C12.1917 9.48333 12 9.95 12 10.5C12 11.05 12.1917 11.525 12.575 11.925C12.975 12.3083 13.45 12.5 14 12.5ZM22 15.5C21.1667 15.5 20.4583 15.2083 19.875 14.625C19.2917 14.0417 19 13.3333 19 12.5C19 11.6667 19.2917 10.9583 19.875 10.375C20.4583 9.79167 21.1667 9.5 22 9.5C22.8333 9.5 23.5417 9.79167 24.125 10.375C24.7083 10.9583 25 11.6667 25 12.5C25 13.3333 24.7083 14.0417 24.125 14.625C23.5417 15.2083 22.8333 15.5 22 15.5ZM22 13.5C22.2833 13.5 22.5167 13.4083 22.7 13.225C22.9 13.025 23 12.7833 23 12.5C23 12.2167 22.9 11.9833 22.7 11.8C22.5167 11.6 22.2833 11.5 22 11.5C21.7167 11.5 21.475 11.6 21.275 11.8C21.0917 11.9833 21 12.2167 21 12.5C21 12.7833 21.0917 13.025 21.275 13.225C21.475 13.4083 21.7167 13.5 22 13.5ZM23 22.5V16.45C23.25 16.5333 23.4833 16.625 23.7 16.725C23.9333 16.825 24.1667 16.9333 24.4 17.05C24.9 17.3 25.2917 17.6667 25.575 18.15C25.8583 18.6333 26 19.1583 26 19.725V22.5H23Z" fill="#848484" />
                </svg>