<svg width="28" height="29" viewBox="0 0 28 29" fill="none" xmlns="http://www.w3.org/2000/svg">
                  <path d="M14.0002 26.1663C13.7279 26.1663 13.4946 26.0886 13.3002 25.933C13.1057 25.7775 12.9599 25.5733 12.8627 25.3205C12.4932 24.2316 12.0266 23.2108 11.4627 22.258C10.9182 21.3052 10.1502 20.1872 9.1585 18.9038C8.16683 17.6205 7.35989 16.3955 6.73766 15.2288C6.13489 14.0622 5.8335 12.6525 5.8335 10.9997C5.8335 8.72467 6.621 6.79967 8.196 5.22467C9.79044 3.63023 11.7252 2.83301 14.0002 2.83301C16.2752 2.83301 18.2002 3.63023 19.7752 5.22467C21.3696 6.79967 22.1668 8.72467 22.1668 10.9997C22.1668 12.7691 21.8266 14.2469 21.146 15.433C20.4849 16.5997 19.7168 17.7566 18.8418 18.9038C17.7918 20.3038 16.9946 21.4705 16.4502 22.4038C15.9252 23.3177 15.4877 24.29 15.1377 25.3205C15.0404 25.5927 14.8849 25.8066 14.671 25.9622C14.4766 26.0983 14.2529 26.1663 14.0002 26.1663ZM14.0002 21.9955C14.3307 21.3344 14.7002 20.683 15.1085 20.0413C15.5363 19.3997 16.1585 18.5441 16.9752 17.4747C17.8113 16.3858 18.4918 15.3844 19.0168 14.4705C19.5613 13.5372 19.8335 12.3802 19.8335 10.9997C19.8335 9.38578 19.2599 8.01495 18.1127 6.88717C16.9849 5.73995 15.6141 5.16634 14.0002 5.16634C12.3863 5.16634 11.0057 5.73995 9.8585 6.88717C8.73072 8.01495 8.16683 9.38578 8.16683 10.9997C8.16683 12.3802 8.42933 13.5372 8.95433 14.4705C9.49877 15.3844 10.1891 16.3858 11.0252 17.4747C11.8418 18.5441 12.4543 19.3997 12.8627 20.0413C13.2904 20.683 13.6696 21.3344 14.0002 21.9955ZM14.0002 13.9163C14.8168 13.9163 15.5071 13.6344 16.071 13.0705C16.6349 12.5066 16.9168 11.8163 16.9168 10.9997C16.9168 10.183 16.6349 9.49273 16.071 8.92884C15.5071 8.36495 14.8168 8.08301 14.0002 8.08301C13.1835 8.08301 12.4932 8.36495 11.9293 8.92884C11.3654 9.49273 11.0835 10.183 11.0835 10.9997C11.0835 11.8163 11.3654 12.5066 11.9293 13.0705C12.4932 13.6344 13.1835 13.9163 14.0002 13.9163Z" fill="#848484" />
                </svg>