<svg width="28" height="28" viewBox="0 0 28 28" fill="none" xmlns="http://www.w3.org/2000/svg">
<path d="M14.0002 25.6667C13.7279 25.6667 13.4946 25.5889 13.3002 25.4333C13.1057 25.2778 12.9599 25.0736 12.8627 24.8208C12.4932 23.7319 12.0266 22.7111 11.4627 21.7583C10.9182 20.8056 10.1502 19.6875 9.1585 18.4042C8.16683 17.1208 7.35989 15.8958 6.73766 14.7292C6.13489 13.5625 5.8335 12.1528 5.8335 10.5C5.8335 8.22499 6.621 6.29999 8.196 4.72499C9.79044 3.13055 11.7252 2.33333 14.0002 2.33333C16.2752 2.33333 18.2002 3.13055 19.7752 4.72499C21.3696 6.29999 22.1668 8.22499 22.1668 10.5C22.1668 12.2694 21.8266 13.7472 21.146 14.9333C20.4849 16.1 19.7168 17.2569 18.8418 18.4042C17.7918 19.8042 16.9946 20.9708 16.4502 21.9042C15.9252 22.8181 15.4877 23.7903 15.1377 24.8208C15.0404 25.0931 14.8849 25.3069 14.671 25.4625C14.4766 25.5986 14.2529 25.6667 14.0002 25.6667ZM14.0002 21.4958C14.3307 20.8347 14.7002 20.1833 15.1085 19.5417C15.5363 18.9 16.1585 18.0444 16.9752 16.975C17.8113 15.8861 18.4918 14.8847 19.0168 13.9708C19.5613 13.0375 19.8335 11.8805 19.8335 10.5C19.8335 8.88611 19.2599 7.51527 18.1127 6.3875C16.9849 5.24027 15.6141 4.66666 14.0002 4.66666C12.3863 4.66666 11.0057 5.24027 9.8585 6.3875C8.73072 7.51527 8.16683 8.88611 8.16683 10.5C8.16683 11.8805 8.42933 13.0375 8.95433 13.9708C9.49877 14.8847 10.1891 15.8861 11.0252 16.975C11.8418 18.0444 12.4543 18.9 12.8627 19.5417C13.2904 20.1833 13.6696 20.8347 14.0002 21.4958ZM14.0002 13.4167C14.8168 13.4167 15.5071 13.1347 16.071 12.5708C16.6349 12.0069 16.9168 11.3167 16.9168 10.5C16.9168 9.68333 16.6349 8.99305 16.071 8.42916C15.5071 7.86527 14.8168 7.58333 14.0002 7.58333C13.1835 7.58333 12.4932 7.86527 11.9293 8.42916C11.3654 8.99305 11.0835 9.68333 11.0835 10.5C11.0835 11.3167 11.3654 12.0069 11.9293 12.5708C12.4932 13.1347 13.1835 13.4167 14.0002 13.4167Z" fill="#848484"/>
</svg>
