<svg width="28" height="28" viewBox="0 0 28 28" fill="none" xmlns="http://www.w3.org/2000/svg">
<path d="M4.66683 23.3333C4.02516 23.3333 3.47586 23.1049 3.01891 22.6479C2.56197 22.191 2.3335 21.6417 2.3335 21V7.00001C2.3335 6.35834 2.56197 5.80903 3.01891 5.35209C3.47586 4.89514 4.02516 4.66667 4.66683 4.66667H23.3335C23.9752 4.66667 24.5245 4.89514 24.9814 5.35209C25.4384 5.80903 25.6668 6.35834 25.6668 7.00001V21C25.6668 21.6417 25.4384 22.191 24.9814 22.6479C24.5245 23.1049 23.9752 23.3333 23.3335 23.3333H4.66683ZM14.0002 15.1667L4.66683 9.33334V21H23.3335V9.33334L14.0002 15.1667ZM14.0002 12.8333L23.3335 7.00001H4.66683L14.0002 12.8333ZM4.66683 9.33334V7.00001V21V9.33334Z" fill="#848484"/>
</svg>
