<svg width="28" height="28" viewBox="0 0 28 28" fill="none" xmlns="http://www.w3.org/2000/svg">
<path d="M13.9998 14C12.7165 14 11.6179 13.5431 10.704 12.6292C9.79012 11.7153 9.33317 10.6167 9.33317 9.33334C9.33317 8.05001 9.79012 6.95139 10.704 6.03751C11.6179 5.12362 12.7165 4.66667 13.9998 4.66667C15.2832 4.66667 16.3818 5.12362 17.2957 6.03751C18.2096 6.95139 18.6665 8.05001 18.6665 9.33334C18.6665 10.6167 18.2096 11.7153 17.2957 12.6292C16.3818 13.5431 15.2832 14 13.9998 14ZM4.6665 23.3333V20.0667C4.6665 19.4056 4.83664 18.7979 5.17692 18.2438C5.5172 17.6896 5.96928 17.2667 6.53317 16.975C7.73873 16.3722 8.96373 15.9201 10.2082 15.6188C11.4526 15.3174 12.7165 15.1667 13.9998 15.1667C15.2832 15.1667 16.5471 15.3174 17.7915 15.6188C19.0359 15.9201 20.261 16.3722 21.4665 16.975C22.0304 17.2667 22.4825 17.6896 22.8228 18.2438C23.163 18.7979 23.3332 19.4056 23.3332 20.0667V23.3333H4.6665ZM6.99984 21H20.9998V20.0667C20.9998 19.8528 20.9464 19.6583 20.8394 19.4833C20.7325 19.3083 20.5915 19.1722 20.4165 19.075C19.3665 18.55 18.3068 18.1563 17.2373 17.8938C16.1679 17.6313 15.0887 17.5 13.9998 17.5C12.9109 17.5 11.8318 17.6313 10.7623 17.8938C9.69289 18.1563 8.63317 18.55 7.58317 19.075C7.40817 19.1722 7.2672 19.3083 7.16025 19.4833C7.05331 19.6583 6.99984 19.8528 6.99984 20.0667V21ZM13.9998 11.6667C14.6415 11.6667 15.1908 11.4382 15.6478 10.9813C16.1047 10.5243 16.3332 9.97501 16.3332 9.33334C16.3332 8.69167 16.1047 8.14237 15.6478 7.68542C15.1908 7.22848 14.6415 7.00001 13.9998 7.00001C13.3582 7.00001 12.8089 7.22848 12.3519 7.68542C11.895 8.14237 11.6665 8.69167 11.6665 9.33334C11.6665 9.97501 11.895 10.5243 12.3519 10.9813C12.8089 11.4382 13.3582 11.6667 13.9998 11.6667Z" fill="#848484"/>
</svg>
