<svg width="28" height="29" viewBox="0 0 28 29" fill="none" xmlns="http://www.w3.org/2000/svg">
                  <path d="M13.9998 14.5003C12.7165 14.5003 11.6179 14.0434 10.704 13.1295C9.79012 12.2156 9.33317 11.117 9.33317 9.83366C9.33317 8.55033 9.79012 7.45171 10.704 6.53783C11.6179 5.62394 12.7165 5.16699 13.9998 5.16699C15.2832 5.16699 16.3818 5.62394 17.2957 6.53783C18.2096 7.45171 18.6665 8.55033 18.6665 9.83366C18.6665 11.117 18.2096 12.2156 17.2957 13.1295C16.3818 14.0434 15.2832 14.5003 13.9998 14.5003ZM4.6665 23.8337V20.567C4.6665 19.9059 4.83664 19.2982 5.17692 18.7441C5.5172 18.1899 5.96928 17.767 6.53317 17.4753C7.73873 16.8725 8.96373 16.4205 10.2082 16.1191C11.4526 15.8177 12.7165 15.667 13.9998 15.667C15.2832 15.667 16.5471 15.8177 17.7915 16.1191C19.0359 16.4205 20.261 16.8725 21.4665 17.4753C22.0304 17.767 22.4825 18.1899 22.8228 18.7441C23.163 19.2982 23.3332 19.9059 23.3332 20.567V23.8337H4.6665ZM6.99984 21.5003H20.9998V20.567C20.9998 20.3531 20.9464 20.1587 20.8394 19.9837C20.7325 19.8087 20.5915 19.6725 20.4165 19.5753C19.3665 19.0503 18.3068 18.6566 17.2373 18.3941C16.1679 18.1316 15.0887 18.0003 13.9998 18.0003C12.9109 18.0003 11.8318 18.1316 10.7623 18.3941C9.69289 18.6566 8.63317 19.0503 7.58317 19.5753C7.40817 19.6725 7.2672 19.8087 7.16025 19.9837C7.05331 20.1587 6.99984 20.3531 6.99984 20.567V21.5003ZM13.9998 12.167C14.6415 12.167 15.1908 11.9385 15.6478 11.4816C16.1047 11.0246 16.3332 10.4753 16.3332 9.83366C16.3332 9.19199 16.1047 8.64269 15.6478 8.18574C15.1908 7.7288 14.6415 7.50033 13.9998 7.50033C13.3582 7.50033 12.8089 7.7288 12.3519 8.18574C11.895 8.64269 11.6665 9.19199 11.6665 9.83366C11.6665 10.4753 11.895 11.0246 12.3519 11.4816C12.8089 11.9385 13.3582 12.167 13.9998 12.167Z" fill="#848484" />
                </svg>