<svg width="28" height="28" viewBox="0 0 28 28" fill="none" xmlns="http://www.w3.org/2000/svg">
<path d="M4.66683 23.3333C4.02516 23.3333 3.471 23.1097 3.00433 22.6625C2.55711 22.1958 2.3335 21.6417 2.3335 21V7C2.3335 6.35834 2.55711 5.81389 3.00433 5.36667C3.471 4.9 4.02516 4.66667 4.66683 4.66667H18.6668C19.3085 4.66667 19.8529 4.9 20.3002 5.36667C20.7668 5.81389 21.0002 6.35834 21.0002 7V12.25L25.6668 7.58334V20.4167L21.0002 15.75V21C21.0002 21.6417 20.7668 22.1958 20.3002 22.6625C19.8529 23.1097 19.3085 23.3333 18.6668 23.3333H4.66683ZM4.66683 21H18.6668V7H4.66683V21ZM4.66683 21V7V21Z" fill="#848484"/>
</svg>
