<svg width="8" height="5" viewBox="0 0 8 5" fill="none" xmlns="http://www.w3.org/2000/svg">
<path d="M3.51163 4.30851L0.139535 1.2234C0.0930233 1.18085 0.0582946 1.13489 0.0353489 1.08553C0.0124032 1.03617 0.000620155 0.982837 0 0.925532C0 0.812057 0.0427907 0.712766 0.128372 0.627659C0.213953 0.542553 0.326201 0.5 0.465116 0.5H7.53488C7.67441 0.5 7.78697 0.542553 7.87255 0.627659C7.95813 0.712766 8.00061 0.812057 7.99999 0.925532C7.99999 0.953901 7.95348 1.05319 7.86046 1.2234L4.48837 4.30851C4.41085 4.37943 4.33333 4.42908 4.25581 4.45745C4.17829 4.48582 4.09302 4.5 4 4.5C3.90697 4.5 3.8217 4.48582 3.74418 4.45745C3.66666 4.42908 3.58914 4.37943 3.51163 4.30851Z" fill="black"/>
</svg>
