<svg xmlns="http://www.w3.org/2000/svg" width="36" height="37" viewBox="0 0 36 37" fill="none">
  <path d="M29.4 32L19.95 22.55C19.2 23.15 18.3375 23.625 17.3625 23.975C16.3875 24.325 15.35 24.5 14.25 24.5C11.525 24.5 9.219 23.556 7.332 21.668C5.445 19.78 4.501 17.474 4.5 14.75C4.5 12.025 5.444 9.719 7.332 7.832C9.22 5.945 11.526 5.001 14.25 5C16.975 5 19.2815 5.944 21.1695 7.832C23.0575 9.72 24.001 12.026 24 14.75C24 15.85 23.825 16.8875 23.475 17.8625C23.125 18.8375 22.65 19.7 22.05 20.45L31.5 29.9L29.4 32ZM14.25 21.5C16.125 21.5 17.719 20.844 19.032 19.532C20.345 18.22 21.001 16.626 21 14.75C21 12.875 20.344 11.2815 19.032 9.9695C17.72 8.6575 16.126 8.001 14.25 8C12.375 8 10.7815 8.6565 9.4695 9.9695C8.1575 11.2825 7.501 12.876 7.5 14.75C7.5 16.625 8.1565 18.219 9.4695 19.532C10.7825 20.845 12.376 21.501 14.25 21.5Z" fill="#1E1E1E"/>
</svg>